# Exported from Wings 3D 0.98.32a
mtllib table_01.mtl
o cube1
#120 vertices, 118 faces
v -2.25173760 -0.26108160 1.00000000
v -2.25173760 0.26108160 1.00000000
v 2.25173760 0.26108160 1.00000000
v 2.25173760 -0.26108160 1.00000000
v -2.25173760 -0.26108160 -1.00000000
v -2.25173760 0.26108160 -1.00000000
v 2.25173760 0.26108160 -1.00000000
v 2.25173760 -0.26108160 -1.00000000
v 2.60071680 0.26108160 1.00000000
v 2.60071680 -0.26108160 1.00000000
v 2.60071680 -0.26108160 -1.00000000
v 2.60071680 0.26108160 -1.00000000
v -2.60071680 -0.26108160 1.00000000
v -2.60071680 0.26108160 1.00000000
v -2.60071680 0.26108160 -1.00000000
v -2.60071680 -0.26108160 -1.00000000
v -2.25173760 0.26108160 1.36700160
v -2.25173760 -0.26108160 1.36700160
v 2.25173760 -0.26108160 1.36700160
v 2.25173760 0.26108160 1.36700160
v -2.25173760 -0.26108160 -1.36700160
v -2.25173760 0.26108160 -1.36700160
v 2.25173760 0.26108160 -1.36700160
v 2.25173760 -0.26108160 -1.36700160
v 2.60071680 -0.26108160 1.36700160
v 2.60071680 0.26108160 1.36700160
v 2.25173760 0.26108160 1.36700160
v 2.25173760 -0.26108160 1.36700160
v 2.60071680 0.26108160 -1.36700160
v 2.60071680 -0.26108160 -1.36700160
v 2.25173760 -0.26108160 -1.36700160
v 2.25173760 0.26108160 -1.36700160
v -2.60071680 0.26108160 1.36700160
v -2.60071680 -0.26108160 1.36700160
v -2.25173760 -0.26108160 1.36700160
v -2.25173760 0.26108160 1.36700160
v -2.60071680 -0.26108160 -1.36700160
v -2.60071680 0.26108160 -1.36700160
v -2.25173760 0.26108160 -1.36700160
v -2.25173760 -0.26108160 -1.36700160
v -2.25173760 3.9897600e-2 1.00000000
v 2.25173760 3.9897600e-2 1.00000000
v 2.25173760 3.9897600e-2 -1.00000000
v -2.25173760 3.9897600e-2 -1.00000000
v 1.93649434 -0.99672320 0.69000000
v -1.93649434 -0.99672320 0.69000000
v -1.93649434 -0.99672320 -0.69000000
v 1.93649434 -0.99672320 -0.69000000
v 2.23661645 -0.99672320 -0.69000000
v 2.23661645 -0.99672320 0.69000000
v 1.93649434 -0.99672320 0.69000000
v 1.93649434 -0.99672320 -0.69000000
v -2.23661645 -0.99672320 0.69000000
v -2.23661645 -0.99672320 -0.69000000
v -1.93649434 -0.99672320 -0.69000000
v -1.93649434 -0.99672320 0.69000000
v 1.93649434 -0.99672320 0.94323110
v -1.93649434 -0.99672320 0.94323110
v -1.93649434 -0.99672320 0.69000000
v 1.93649434 -0.99672320 0.69000000
v -1.93649434 -0.99672320 -0.94323110
v 1.93649434 -0.99672320 -0.94323110
v 1.93649434 -0.99672320 -0.69000000
v -1.93649434 -0.99672320 -0.69000000
v 2.23661645 -0.99672320 0.94323110
v 1.93649434 -0.99672320 0.94323110
v 1.93649434 -0.99672320 0.69000000
v 2.23661645 -0.99672320 0.69000000
v 1.93649434 -0.99672320 -0.94323110
v 2.23661645 -0.99672320 -0.94323110
v 2.23661645 -0.99672320 -0.69000000
v 1.93649434 -0.99672320 -0.69000000
v -1.93649434 -0.99672320 0.94323110
v -2.23661645 -0.99672320 0.94323110
v -2.23661645 -0.99672320 0.69000000
v -1.93649434 -0.99672320 0.69000000
v -2.23661645 -0.99672320 -0.94323110
v -1.93649434 -0.99672320 -0.94323110
v -1.93649434 -0.99672320 -0.69000000
v -2.23661645 -0.99672320 -0.69000000
v 1.93649434 -1.63406080 0.69000000
v -1.93649434 -1.63406080 0.69000000
v -1.93649434 -1.63406080 -0.69000000
v 1.93649434 -1.63406080 -0.69000000
v 2.23661645 -1.63406080 -0.69000000
v 2.23661645 -1.63406080 0.69000000
v 1.93649434 -1.63406080 0.69000000
v 1.93649434 -1.63406080 -0.69000000
v -2.23661645 -1.63406080 0.69000000
v -2.23661645 -1.63406080 -0.69000000
v -1.93649434 -1.63406080 -0.69000000
v -1.93649434 -1.63406080 0.69000000
v 1.93649434 -1.63406080 0.94323110
v -1.93649434 -1.63406080 0.94323110
v -1.93649434 -1.63406080 0.69000000
v 1.93649434 -1.63406080 0.69000000
v -1.93649434 -1.63406080 -0.94323110
v 1.93649434 -1.63406080 -0.94323110
v 1.93649434 -1.63406080 -0.69000000
v -1.93649434 -1.63406080 -0.69000000
v 2.23661645 -1.63406080 0.94323110
v 1.93649434 -1.63406080 0.94323110
v 1.93649434 -1.63406080 0.69000000
v 2.23661645 -1.63406080 0.69000000
v 1.93649434 -1.63406080 -0.94323110
v 2.23661645 -1.63406080 -0.94323110
v 2.23661645 -1.63406080 -0.69000000
v 1.93649434 -1.63406080 -0.69000000
v -1.93649434 -1.63406080 0.94323110
v -2.23661645 -1.63406080 0.94323110
v -2.23661645 -1.63406080 0.69000000
v -1.93649434 -1.63406080 0.69000000
v -2.23661645 -1.63406080 -0.94323110
v -1.93649434 -1.63406080 -0.94323110
v -1.93649434 -1.63406080 -0.69000000
v -2.23661645 -1.63406080 -0.69000000
v -1.93649434 -0.74922617 -0.10268029
v 1.93649434 -0.74922617 -0.10268029
v 2.25173760 -1.3584573e-2 -0.41268029
v -2.25173760 -1.3584573e-2 -0.41268029
vn 0.0000000e+0 0.0000000e+0 0.0000000e+0
vn 0.30151134 0.90453403 -0.30151134
vn -0.30151134 0.90453403 -0.30151134
vn 0.0000000e+0 0.0000000e+0 0.0000000e+0
vn -0.61795713 0.12937128 -0.77549472
vn 0.30151134 0.90453403 0.30151134
vn -0.30151134 0.90453403 0.30151134
vn 0.61795713 0.12937128 -0.77549472
vn 0.70710678 0.70710678 0.0000000e+0
vn 0.97371271 -0.22777962 0.0000000e+0
vn 0.97371271 -0.22777962 0.0000000e+0
vn 0.70710678 0.70710678 0.0000000e+0
vn -0.97371271 -0.22777962 0.0000000e+0
vn -0.70710678 0.70710678 0.0000000e+0
vn -0.70710678 0.70710678 0.0000000e+0
vn -0.97371271 -0.22777962 0.0000000e+0
vn -0.57735027 0.57735027 0.57735027
vn -0.68003312 -0.31644045 0.66137765
vn 0.68003312 -0.31644045 0.66137765
vn 0.57735027 0.57735027 0.57735027
vn -0.68003312 -0.31644045 -0.66137765
vn -0.57735027 0.57735027 -0.57735027
vn 0.57735027 0.57735027 -0.57735027
vn 0.68003312 -0.31644045 -0.66137765
vn 0.67175077 -0.33397154 0.66122154
vn 0.57735027 0.57735027 0.57735027
vn -0.57735027 0.57735027 0.57735027
vn -0.71631783 -3.9292530e-2 0.69666696
vn 0.57735027 0.57735027 -0.57735027
vn 0.67175077 -0.33397154 -0.66122154
vn -0.71631783 -3.9292530e-2 -0.69666696
vn -0.57735027 0.57735027 -0.57735027
vn -0.57735027 0.57735027 0.57735027
vn -0.67175077 -0.33397154 0.66122154
vn 0.71631783 -3.9292530e-2 0.69666696
vn 0.57735027 0.57735027 0.57735027
vn -0.67175077 -0.33397154 -0.66122154
vn -0.57735027 0.57735027 -0.57735027
vn 0.57735027 0.57735027 -0.57735027
vn 0.71631783 -3.9292530e-2 -0.69666696
vn 0.57735027 0.57735027 -0.57735027
vn -0.57735027 0.57735027 -0.57735027
vn -0.57735027 0.57735027 0.57735027
vn 0.57735027 0.57735027 0.57735027
vn 0.67906559 -0.27677511 0.67990106
vn -0.67906559 -0.27677511 0.67990106
vn -0.67906559 -0.27677511 -0.67990106
vn 0.67906559 -0.27677511 -0.67990106
vn 0.67125831 -0.29449377 -0.68021004
vn 0.67125831 -0.29449377 0.68021004
vn -0.70667045 2.0459237e-3 0.70753989
vn -0.70667045 2.0459237e-3 -0.70753989
vn -0.67125831 -0.29449377 0.68021004
vn -0.67125831 -0.29449377 -0.68021004
vn 0.70667045 2.0459237e-3 -0.70753989
vn 0.70667045 2.0459237e-3 0.70753989
vn 0.68003312 -0.31644045 0.66137765
vn -0.68003312 -0.31644045 0.66137765
vn -0.70667045 -2.0459237e-3 -0.70753989
vn 0.70667045 -2.0459237e-3 -0.70753989
vn -0.68003312 -0.31644045 -0.66137765
vn 0.68003312 -0.31644045 -0.66137765
vn 0.78430958 -0.45525860 0.42142389
vn -0.78430958 -0.45525860 0.42142389
vn 0.67175077 -0.33397154 0.66122154
vn -0.71631783 -3.9292530e-2 0.69666696
vn -0.67906559 0.27677511 -0.67990106
vn 0.70226063 -2.0463148e-2 -0.71162579
vn -0.71631783 -3.9292530e-2 -0.69666696
vn 0.67175077 -0.33397154 -0.66122154
vn 0.70226063 -2.0463148e-2 0.71162579
vn -0.67906559 0.27677511 0.67990106
vn 0.71631783 -3.9292530e-2 0.69666696
vn -0.67175077 -0.33397154 0.66122154
vn -0.70226063 -2.0463148e-2 -0.71162579
vn 0.67906559 0.27677511 -0.67990106
vn -0.67175077 -0.33397154 -0.66122154
vn 0.71631783 -3.9292530e-2 -0.69666696
vn 0.67906559 0.27677511 0.67990106
vn -0.70226063 -2.0463148e-2 0.71162579
vn 0.57735027 -0.57735027 0.57735027
vn -0.57735027 -0.57735027 0.57735027
vn -0.57735027 -0.57735027 -0.57735027
vn 0.57735027 -0.57735027 -0.57735027
vn 0.57735027 -0.57735027 -0.57735027
vn 0.57735027 -0.57735027 0.57735027
vn -0.57735027 -0.57735027 0.57735027
vn -0.57735027 -0.57735027 -0.57735027
vn -0.57735027 -0.57735027 0.57735027
vn -0.57735027 -0.57735027 -0.57735027
vn 0.57735027 -0.57735027 -0.57735027
vn 0.57735027 -0.57735027 0.57735027
vn 0.57735027 -0.57735027 0.57735027
vn -0.57735027 -0.57735027 0.57735027
vn -0.57735027 -0.57735027 -0.57735027
vn 0.57735027 -0.57735027 -0.57735027
vn -0.57735027 -0.57735027 -0.57735027
vn 0.57735027 -0.57735027 -0.57735027
vn 0.57735027 -0.57735027 0.57735027
vn -0.57735027 -0.57735027 0.57735027
vn 0.57735027 -0.57735027 0.57735027
vn -0.57735027 -0.57735027 0.57735027
vn -0.57735027 -0.57735027 -0.57735027
vn 0.57735027 -0.57735027 -0.57735027
vn -0.57735027 -0.57735027 -0.57735027
vn 0.57735027 -0.57735027 -0.57735027
vn 0.57735027 -0.57735027 0.57735027
vn -0.57735027 -0.57735027 0.57735027
vn 0.57735027 -0.57735027 0.57735027
vn -0.57735027 -0.57735027 0.57735027
vn -0.57735027 -0.57735027 -0.57735027
vn 0.57735027 -0.57735027 -0.57735027
vn -0.57735027 -0.57735027 -0.57735027
vn 0.57735027 -0.57735027 -0.57735027
vn 0.57735027 -0.57735027 0.57735027
vn -0.57735027 -0.57735027 0.57735027
vn -0.48129350 -0.45105181 0.75160417
vn 0.48129350 -0.45105181 0.75160417
vn 0.61795713 0.64538021 0.44901378
vn -0.61795713 0.64538021 0.44901378
g cube1_default
usemtl default
f 1//1 18//18 17//17 2//2
f 1//1 46//46 45//45 4//4
f 1//1 56//56 55//55 5//5
f 1//1 59//59 58//58 18//18
f 1//1 76//76 75//75 13//13
f 2//2 17//17 20//20 3//3
f 2//2 36//36 35//35 1//1
f 2//2 41//41 44//44 6//6
f 3//3 9//9 12//12 7//7
f 3//3 20//20 19//19 4//4
f 3//3 27//27 26//26 9//9
f 3//3 42//42 41//41 2//2
f 4//4 28//28 27//27 3//3
f 4//4 45//45 48//48 8//8
f 4//4 51//51 50//50 10//10
f 4//4 60//60 59//59 1//1
f 4//4 67//67 66//66 28//28
f 5//5 40//40 39//39 6//6
f 5//5 47//47 46//46 1//1
f 5//5 55//55 54//54 16//16
f 5//5 79//79 78//78 40//40
f 5//5 120//120 119//119 8//8
f 6//6 15//15 14//14 2//2
f 6//6 22//22 21//21 5//5
f 6//6 39//39 38//38 15//15
f 6//6 44//44 43//43 7//7
f 7//7 23//23 22//22 6//6
f 7//7 32//32 31//31 8//8
f 7//7 43//43 42//42 3//3
f 8//8 24//24 23//23 7//7
f 8//8 48//48 47//47 5//5
f 8//8 52//52 51//51 4//4
f 8//8 63//63 62//62 24//24
f 8//8 72//72 71//71 11//11
f 8//8 119//119 118//118 63//63
f 9//9 26//26 25//25 10//10
f 10//10 11//11 12//12 9//9
f 10//10 50//50 49//49 11//11
f 10//10 68//68 67//67 4//4
f 11//11 30//30 29//29 12//12
f 11//11 49//49 52//52 8//8
f 11//11 71//71 70//70 30//30
f 12//12 29//29 32//32 7//7
f 13//13 34//34 33//33 14//14
f 13//13 53//53 56//56 1//1
f 13//13 75//75 74//74 34//34
f 14//14 15//15 16//16 13//13
f 14//14 33//33 36//36 2//2
f 15//15 38//38 37//37 16//16
f 16//16 54//54 53//53 13//13
f 16//16 80//80 79//79 5//5
f 18//18 19//19 20//20 17//17
f 18//18 58//58 57//57 19//19
f 19//19 57//57 60//60 4//4
f 21//21 61//61 64//64 5//5
f 22//22 23//23 24//24 21//21
f 24//24 62//62 61//61 21//21
f 25//25 65//65 68//68 10//10
f 26//26 27//27 28//28 25//25
f 28//28 66//66 65//65 25//25
f 30//30 31//31 32//32 29//29
f 30//30 70//70 69//69 31//31
f 31//31 69//69 72//72 8//8
f 34//34 35//35 36//36 33//33
f 34//34 74//74 73//73 35//35
f 35//35 73//73 76//76 1//1
f 37//37 77//77 80//80 16//16
f 38//38 39//39 40//40 37//37
f 40//40 78//78 77//77 37//37
f 42//42 43//43 44//44 41//41
f 45//45 81//81 84//84 48//48
f 46//46 82//82 81//81 45//45
f 47//47 83//83 82//82 46//46
f 48//48 84//84 83//83 47//47
f 49//49 85//85 88//88 52//52
f 50//50 86//86 85//85 49//49
f 51//51 87//87 86//86 50//50
f 52//52 88//88 87//87 51//51
f 53//53 89//89 92//92 56//56
f 54//54 90//90 89//89 53//53
f 55//55 91//91 90//90 54//54
f 56//56 92//92 91//91 55//55
f 57//57 93//93 96//96 60//60
f 58//58 94//94 93//93 57//57
f 59//59 95//95 94//94 58//58
f 60//60 96//96 95//95 59//59
f 61//61 97//97 100//100 64//64
f 62//62 98//98 97//97 61//61
f 63//63 99//99 98//98 62//62
f 63//63 118//118 117//117 64//64
f 64//64 100//100 99//99 63//63
f 64//64 117//117 120//120 5//5
f 65//65 101//101 104//104 68//68
f 66//66 102//102 101//101 65//65
f 67//67 103//103 102//102 66//66
f 68//68 104//104 103//103 67//67
f 69//69 105//105 108//108 72//72
f 70//70 106//106 105//105 69//69
f 71//71 107//107 106//106 70//70
f 72//72 108//108 107//107 71//71
f 73//73 109//109 112//112 76//76
f 74//74 110//110 109//109 73//73
f 75//75 111//111 110//110 74//74
f 76//76 112//112 111//111 75//75
f 77//77 113//113 116//116 80//80
f 78//78 114//114 113//113 77//77
f 79//79 115//115 114//114 78//78
f 80//80 116//116 115//115 79//79
f 82//82 83//83 84//84 81//81
f 86//86 87//87 88//88 85//85
f 90//90 91//91 92//92 89//89
f 94//94 95//95 96//96 93//93
f 98//98 99//99 100//100 97//97
f 102//102 103//103 104//104 101//101
f 106//106 107//107 108//108 105//105
f 110//110 111//111 112//112 109//109
f 114//114 115//115 116//116 113//113
f 118//118 119//119 120//120 117//117
